<?xml version="1.0" encoding="utf-8"?>
<svg width="68px" height="68px" viewbox="0 0 68 68" version="1.1" xmlns:xlink="http://www.w3.org/1999/xlink" xmlns="http://www.w3.org/2000/svg">
  <path d="M0 25C0 11.1929 11.1929 0 25 0C38.8071 0 50 11.1929 50 25C50 38.8071 38.8071 50 25 50C11.1929 50 0 38.8071 0 25Z" transform="translate(9 8.5)" id="Ellipse" fill="#D3D3D3" fill-opacity="0" fill-rule="evenodd" stroke="#000000" stroke-width="6" />
  <path d="M0 12.5C0 5.59644 5.59644 0 12.5 0C19.4036 0 25 5.59644 25 12.5C25 19.4036 19.4036 25 12.5 25C5.59644 25 0 19.4036 0 12.5Z" transform="translate(22 21.5)" id="Ellipse-2" fill="#D3D3D3" fill-opacity="0" fill-rule="evenodd" stroke="#000000" stroke-width="6" />
  <path d="M2.999 0L3.001 0Q3.14833 0 3.29495 0.014441Q3.44158 0.028882 3.58608 0.0576249Q3.73058 0.0863679 3.87156 0.129136Q4.01255 0.171904 4.14867 0.228285Q4.28478 0.284667 4.41472 0.354118Q4.54465 0.42357 4.66715 0.505423Q4.78966 0.587276 4.90355 0.680742Q5.01743 0.774208 5.12161 0.878387Q5.22579 0.982566 5.31926 1.09645Q5.41272 1.21034 5.49458 1.33284Q5.57643 1.45535 5.64588 1.58528Q5.71533 1.71522 5.77171 1.85133Q5.8281 1.98745 5.87086 2.12844Q5.91363 2.26942 5.94237 2.41392Q5.97112 2.55842 5.98556 2.70505Q6 2.85167 6 2.999L6 28.001Q6 28.1483 5.98556 28.295Q5.97112 28.4416 5.94237 28.5861Q5.91363 28.7306 5.87086 28.8716Q5.8281 29.0125 5.77171 29.1487Q5.71533 29.2848 5.64588 29.4147Q5.57643 29.5446 5.49458 29.6671Q5.41272 29.7896 5.31926 29.9035Q5.22579 30.0174 5.12161 30.1216Q5.01743 30.2258 4.90355 30.3193Q4.78966 30.4127 4.66715 30.4946Q4.54465 30.5764 4.41472 30.6459Q4.28478 30.7153 4.14867 30.7717Q4.01255 30.8281 3.87156 30.8709Q3.73058 30.9136 3.58608 30.9424Q3.44158 30.9711 3.29495 30.9856Q3.14833 31 3.001 31L2.999 31Q2.85167 31 2.70505 30.9856Q2.55842 30.9711 2.41392 30.9424Q2.26942 30.9136 2.12844 30.8709Q1.98745 30.8281 1.85133 30.7717Q1.71522 30.7153 1.58528 30.6459Q1.45535 30.5764 1.33284 30.4946Q1.21034 30.4127 1.09645 30.3193Q0.982566 30.2258 0.878387 30.1216Q0.774208 30.0174 0.680742 29.9035Q0.587276 29.7897 0.505423 29.6672Q0.42357 29.5447 0.354118 29.4147Q0.284667 29.2848 0.228285 29.1487Q0.171904 29.0125 0.129136 28.8716Q0.0863679 28.7306 0.0576249 28.5861Q0.028882 28.4416 0.014441 28.295Q0 28.1483 0 28.001L0 2.999Q0 2.85167 0.014441 2.70505Q0.028882 2.55842 0.0576249 2.41392Q0.0863679 2.26942 0.129136 2.12844Q0.171904 1.98745 0.228285 1.85133Q0.284667 1.71522 0.354118 1.58528Q0.42357 1.45535 0.505423 1.33284Q0.587276 1.21034 0.680742 1.09645Q0.774208 0.982566 0.878387 0.878387Q0.982566 0.774208 1.09645 0.680742Q1.21034 0.587276 1.33284 0.505423Q1.45535 0.42357 1.58528 0.354118Q1.71522 0.284667 1.85133 0.228285Q1.98745 0.171904 2.12844 0.129136Q2.26942 0.0863679 2.41392 0.0576249Q2.55842 0.028882 2.70505 0.014441Q2.85167 0 2.999 0L2.999 0Z" transform="translate(31 0)" id="Rectangle-4" fill="#0C0909" fill-rule="evenodd" stroke="none" />
  <path d="M2.999 0L3.001 0Q3.14833 0 3.29495 0.014441Q3.44158 0.028882 3.58608 0.0576249Q3.73058 0.0863679 3.87156 0.129136Q4.01255 0.171904 4.14867 0.228285Q4.28478 0.284667 4.41472 0.354118Q4.54465 0.42357 4.66715 0.505423Q4.78966 0.587276 4.90355 0.680742Q5.01743 0.774208 5.12161 0.878387Q5.22579 0.982566 5.31926 1.09645Q5.41272 1.21034 5.49458 1.33284Q5.57643 1.45535 5.64588 1.58528Q5.71533 1.71522 5.77171 1.85133Q5.8281 1.98745 5.87086 2.12844Q5.91363 2.26942 5.94237 2.41392Q5.97112 2.55842 5.98556 2.70505Q6 2.85167 6 2.999L6 28.001Q6 28.1483 5.98556 28.295Q5.97112 28.4416 5.94237 28.5861Q5.91363 28.7306 5.87086 28.8716Q5.8281 29.0125 5.77171 29.1487Q5.71533 29.2848 5.64588 29.4147Q5.57643 29.5446 5.49458 29.6671Q5.41272 29.7896 5.31926 29.9035Q5.22579 30.0174 5.12161 30.1216Q5.01743 30.2258 4.90355 30.3193Q4.78966 30.4127 4.66715 30.4946Q4.54465 30.5764 4.41472 30.6459Q4.28478 30.7153 4.14867 30.7717Q4.01255 30.8281 3.87156 30.8709Q3.73058 30.9136 3.58608 30.9424Q3.44158 30.9711 3.29495 30.9856Q3.14833 31 3.001 31L2.999 31Q2.85167 31 2.70505 30.9856Q2.55842 30.9711 2.41392 30.9424Q2.26942 30.9136 2.12844 30.8709Q1.98745 30.8281 1.85133 30.7717Q1.71522 30.7153 1.58528 30.6459Q1.45535 30.5764 1.33284 30.4946Q1.21034 30.4127 1.09645 30.3193Q0.982566 30.2258 0.878387 30.1216Q0.774208 30.0174 0.680742 29.9035Q0.587276 29.7897 0.505423 29.6672Q0.42357 29.5447 0.354118 29.4147Q0.284667 29.2848 0.228285 29.1487Q0.171904 29.0125 0.129136 28.8716Q0.0863679 28.7306 0.0576249 28.5861Q0.028882 28.4416 0.014441 28.295Q0 28.1483 0 28.001L0 2.999Q0 2.85167 0.014441 2.70505Q0.028882 2.55842 0.0576249 2.41392Q0.0863679 2.26942 0.129136 2.12844Q0.171904 1.98745 0.228285 1.85133Q0.284667 1.71522 0.354118 1.58528Q0.42357 1.45535 0.505423 1.33284Q0.587276 1.21034 0.680742 1.09645Q0.774208 0.982566 0.878387 0.878387Q0.982566 0.774208 1.09645 0.680742Q1.21034 0.587276 1.33284 0.505423Q1.45535 0.42357 1.58528 0.354118Q1.71522 0.284667 1.85133 0.228285Q1.98745 0.171904 2.12844 0.129136Q2.26942 0.0863679 2.41392 0.0576249Q2.55842 0.028882 2.70505 0.014441Q2.85167 0 2.999 0L2.999 0Z" transform="translate(31 37)" id="Rectangle-5" fill="#0C0909" fill-rule="evenodd" stroke="none" />
  <path d="M2.999 0L3.001 0Q3.14833 0 3.29495 0.014441Q3.44158 0.028882 3.58608 0.0576249Q3.73058 0.0863679 3.87156 0.129136Q4.01255 0.171904 4.14867 0.228285Q4.28478 0.284667 4.41472 0.354118Q4.54465 0.42357 4.66715 0.505423Q4.78966 0.587276 4.90355 0.680742Q5.01743 0.774208 5.12161 0.878387Q5.22579 0.982566 5.31926 1.09645Q5.41272 1.21034 5.49458 1.33284Q5.57643 1.45535 5.64588 1.58528Q5.71533 1.71522 5.77171 1.85133Q5.8281 1.98745 5.87086 2.12844Q5.91363 2.26942 5.94237 2.41392Q5.97112 2.55842 5.98556 2.70505Q6 2.85167 6 2.999L6 28.001Q6 28.1483 5.98556 28.295Q5.97112 28.4416 5.94237 28.5861Q5.91363 28.7306 5.87086 28.8716Q5.8281 29.0125 5.77171 29.1487Q5.71533 29.2848 5.64588 29.4147Q5.57643 29.5446 5.49458 29.6671Q5.41272 29.7896 5.31926 29.9035Q5.22579 30.0174 5.12161 30.1216Q5.01743 30.2258 4.90355 30.3193Q4.78966 30.4127 4.66715 30.4946Q4.54465 30.5764 4.41472 30.6459Q4.28478 30.7153 4.14867 30.7717Q4.01255 30.8281 3.87156 30.8709Q3.73058 30.9136 3.58608 30.9424Q3.44158 30.9711 3.29495 30.9856Q3.14833 31 3.001 31L2.999 31Q2.85167 31 2.70505 30.9856Q2.55842 30.9711 2.41392 30.9424Q2.26942 30.9136 2.12844 30.8709Q1.98745 30.8281 1.85133 30.7717Q1.71522 30.7153 1.58528 30.6459Q1.45535 30.5764 1.33284 30.4946Q1.21034 30.4127 1.09645 30.3193Q0.982566 30.2258 0.878387 30.1216Q0.774208 30.0174 0.680742 29.9035Q0.587276 29.7897 0.505423 29.6672Q0.42357 29.5447 0.354118 29.4147Q0.284667 29.2848 0.228285 29.1487Q0.171904 29.0125 0.129136 28.8716Q0.0863679 28.7306 0.0576249 28.5861Q0.028882 28.4416 0.014441 28.295Q0 28.1483 0 28.001L0 2.999Q0 2.85167 0.014441 2.70505Q0.028882 2.55842 0.0576249 2.41392Q0.0863679 2.26942 0.129136 2.12844Q0.171904 1.98745 0.228285 1.85133Q0.284667 1.71522 0.354118 1.58528Q0.42357 1.45535 0.505423 1.33284Q0.587276 1.21034 0.680742 1.09645Q0.774208 0.982566 0.878387 0.878387Q0.982566 0.774208 1.09645 0.680742Q1.21034 0.587276 1.33284 0.505423Q1.45535 0.42357 1.58528 0.354118Q1.71522 0.284667 1.85133 0.228285Q1.98745 0.171904 2.12844 0.129136Q2.26942 0.0863679 2.41392 0.0576249Q2.55842 0.028882 2.70505 0.014441Q2.85167 0 2.999 0L2.999 0Z" transform="matrix(-4.371139E-08 1 -1 -4.371139E-08 68 31)" id="Rectangle-6" fill="#0C0909" fill-rule="evenodd" stroke="none" />
  <path d="M2.999 0L3.001 0Q3.14833 0 3.29495 0.014441Q3.44158 0.028882 3.58608 0.0576249Q3.73058 0.0863679 3.87156 0.129136Q4.01255 0.171904 4.14867 0.228285Q4.28478 0.284667 4.41472 0.354118Q4.54465 0.42357 4.66715 0.505423Q4.78966 0.587276 4.90355 0.680742Q5.01743 0.774208 5.12161 0.878387Q5.22579 0.982566 5.31926 1.09645Q5.41272 1.21034 5.49458 1.33284Q5.57643 1.45535 5.64588 1.58528Q5.71533 1.71522 5.77171 1.85133Q5.8281 1.98745 5.87086 2.12844Q5.91363 2.26942 5.94237 2.41392Q5.97112 2.55842 5.98556 2.70505Q6 2.85167 6 2.999L6 28.001Q6 28.1483 5.98556 28.295Q5.97112 28.4416 5.94237 28.5861Q5.91363 28.7306 5.87086 28.8716Q5.8281 29.0125 5.77171 29.1487Q5.71533 29.2848 5.64588 29.4147Q5.57643 29.5446 5.49458 29.6671Q5.41272 29.7896 5.31926 29.9035Q5.22579 30.0174 5.12161 30.1216Q5.01743 30.2258 4.90355 30.3193Q4.78966 30.4127 4.66715 30.4946Q4.54465 30.5764 4.41472 30.6459Q4.28478 30.7153 4.14867 30.7717Q4.01255 30.8281 3.87156 30.8709Q3.73058 30.9136 3.58608 30.9424Q3.44158 30.9711 3.29495 30.9856Q3.14833 31 3.001 31L2.999 31Q2.85167 31 2.70505 30.9856Q2.55842 30.9711 2.41392 30.9424Q2.26942 30.9136 2.12844 30.8709Q1.98745 30.8281 1.85133 30.7717Q1.71522 30.7153 1.58528 30.6459Q1.45535 30.5764 1.33284 30.4946Q1.21034 30.4127 1.09645 30.3193Q0.982566 30.2258 0.878387 30.1216Q0.774208 30.0174 0.680742 29.9035Q0.587276 29.7897 0.505423 29.6672Q0.42357 29.5447 0.354118 29.4147Q0.284667 29.2848 0.228285 29.1487Q0.171904 29.0125 0.129136 28.8716Q0.0863679 28.7306 0.0576249 28.5861Q0.028882 28.4416 0.014441 28.295Q0 28.1483 0 28.001L0 2.999Q0 2.85167 0.014441 2.70505Q0.028882 2.55842 0.0576249 2.41392Q0.0863679 2.26942 0.129136 2.12844Q0.171904 1.98745 0.228285 1.85133Q0.284667 1.71522 0.354118 1.58528Q0.42357 1.45535 0.505423 1.33284Q0.587276 1.21034 0.680742 1.09645Q0.774208 0.982566 0.878387 0.878387Q0.982566 0.774208 1.09645 0.680742Q1.21034 0.587276 1.33284 0.505423Q1.45535 0.42357 1.58528 0.354118Q1.71522 0.284667 1.85133 0.228285Q1.98745 0.171904 2.12844 0.129136Q2.26942 0.0863679 2.41392 0.0576249Q2.55842 0.028882 2.70505 0.014441Q2.85167 0 2.999 0L2.999 0Z" transform="matrix(-4.371139E-08 1 -1 -4.371139E-08 31 31)" id="Rectangle-7" fill="#0C0909" fill-rule="evenodd" stroke="none" />
</svg>